<svg id="Layer_1" data-name="Layer 1" xmlns="http://www.w3.org/2000/svg" viewBox="0 0 271.62 61.84"><defs><style>.cls-1{fill:#00306b}.cls-2{fill:#c69e66}</style></defs><path class="cls-1" d="M4.07 34.17H16.4a1 1 0 00.49-.11.37.37 0 00.17-.32h.25V37h-.25a.43.43 0 00-.14-.37.84.84 0 00-.54-.13H7.25v3.47h6a.71.71 0 00.48-.13.5.5 0 00.14-.37h.25v3.25h-.25a.4.4 0 00-.15-.35.76.76 0 00-.47-.12h-6V46h9.34a.75.75 0 00.5-.13.41.41 0 00.15-.34h.24v3.15h-.24a.36.36 0 00-.16-.31 1.07 1.07 0 00-.55-.1H4.07v-.25c.21 0 .35 0 .41-.15a1 1 0 00.09-.49V34.94a.55.55 0 00-.12-.4.49.49 0 00-.38-.12zM28 37.11a.54.54 0 00-.26.1.21.21 0 00-.07.17 5.39 5.39 0 00.3.72l.9 1.93 1.5 3.21c.6 1.28 1.31 2.79 2.11 4.53a1 1 0 00.16.23.54.54 0 00.33.1v.2h-3.1v-.2a.41.41 0 00.21-.05.15.15 0 00.07-.12 3.87 3.87 0 00-.34-.83c-.22-.46-.5-1.06-.86-1.8h-5.43c-.36.8-.64 1.41-.84 1.81a3.07 3.07 0 00-.31.76.22.22 0 00.05.14.31.31 0 00.19.09v.2h-2.78v-.2a.6.6 0 00.41-.23 1.66 1.66 0 00.2-.4c.82-1.88 1.51-3.45 2.08-4.73s1-2.29 1.36-3.05.6-1.33.76-1.69a3.59 3.59 0 00.24-.59.26.26 0 00-.11-.23.58.58 0 00-.21-.07v-.21H28zm-1.9 2.29l-1.84 4.12H28zM40.7 36.75a8.45 8.45 0 011.8.18 10.92 10.92 0 011.45.4c.41.15.74.29 1 .41a2.48 2.48 0 00.48.19.28.28 0 00.15 0l.1-.07.22.07-1.18 2.34-.22-.14a.12.12 0 000-.07.49.49 0 000-.12c0-.18-.37-.43-1.07-.77a7.18 7.18 0 00-2.85-.56 5.27 5.27 0 00-2.6.51 1.39 1.39 0 00-.8 1.22c0 .6.5.93 1.39 1s1.91.09 3.07.09a7 7 0 013.09.66 2.87 2.87 0 011.41 2.73 3 3 0 01-1.64 2.72 8.36 8.36 0 01-4.19.94 13.48 13.48 0 01-2.33-.2 10.33 10.33 0 01-1.52-.41 6.11 6.11 0 01-.87-.41 1 1 0 00-.41-.18.14.14 0 00-.11 0 .73.73 0 01-.09.08h-.21l1.27-2.65.23.12a.44.44 0 010 .1.53.53 0 000 .14c0 .45.42.83 1.16 1.13a7.83 7.83 0 002.82.47 6.72 6.72 0 002.63-.43 1.44 1.44 0 001-1.28c-.06-.73-.52-1.15-1.4-1.26a24.66 24.66 0 00-3-.17 7.56 7.56 0 01-3-.57 2.42 2.42 0 01-1.36-2.43 3.15 3.15 0 011.76-2.9 8.07 8.07 0 013.82-.88zM52.43 47.63v-8.89h-3.61a.89.89 0 00-.45.09.34.34 0 00-.14.3H48v-2.6h.2a.35.35 0 00.1.25.55.55 0 00.42.12h9.5a.62.62 0 00.4-.1.34.34 0 00.12-.27H59v2.6h-.2a.33.33 0 00-.11-.29.66.66 0 00-.43-.1h-3.69v8.91a.49.49 0 00.1.35.56.56 0 00.38.1v.2H52v-.2a.44.44 0 00.37-.12.54.54 0 00.06-.35zM81.51 35.34l-1.88 3.09-.27-.16v-.09a.49.49 0 000-.12c-.06-.39-.59-.78-1.57-1.18a9 9 0 00-3.13-.63 6.37 6.37 0 00-4.12 1.25 4.57 4.57 0 00-1.62 3.73 4.58 4.58 0 001.56 3.68 6.83 6.83 0 004.42 1.32 7.4 7.4 0 003.43-.87c1-.53 1.45-1 1.49-1.55a.47.47 0 000-.19v-.14l.17-.13 2 2.84-.13.07a.22.22 0 01-.1 0 .28.28 0 00-.13 0 1.27 1.27 0 00-.66.34 11.17 11.17 0 01-1.2.77 8.47 8.47 0 01-2 .79 11.23 11.23 0 01-3 .36 9.71 9.71 0 01-6-1.84 7 7 0 01.06-10.71A9.61 9.61 0 0174.86 34a10.44 10.44 0 012.24.22 13.29 13.29 0 011.8.51c.51.2.93.37 1.26.53a3.14 3.14 0 00.69.25.52.52 0 00.28-.08l.14-.15zM84 36.9h9.86a.7.7 0 00.39-.09.29.29 0 00.14-.25h.2v2.58h-.2a.37.37 0 00-.12-.29.65.65 0 00-.43-.11h-7.3v2.8h4.81a.58.58 0 00.38-.1.41.41 0 00.12-.3h.2v2.62h-.2a.32.32 0 00-.13-.29.61.61 0 00-.37-.09h-4.79v3.09H94a.67.67 0 00.4-.1.35.35 0 00.12-.28h.19v2.54h-.19a.28.28 0 00-.13-.25.93.93 0 00-.39-.08H84v-.2q.26 0 .33-.12a.69.69 0 00.06-.39V37.53a.5.5 0 00-.08-.33.43.43 0 00-.31-.09zM100.36 36.9v.21a1.24 1.24 0 00-.27 0 .16.16 0 00-.14.15s0 .09.09.18.2.24.4.46l.86.92 1.47 1.6 4 4.34V37.5a.4.4 0 00-.1-.32.43.43 0 00-.29-.07v-.21h2.71v.21a.4.4 0 00-.31.11.45.45 0 00-.1.31v10a.63.63 0 00.1.43.45.45 0 00.31.1v.2h-2.8v-.2a.59.59 0 00.23 0 .14.14 0 00.08-.11 1.12 1.12 0 00-.23-.34l-.61-.7-1-1c-.38-.4-.79-.85-1.24-1.36l-.92-1-1.25-1.39c-.45-.49-.84-.94-1.2-1.34s-.61-.68-.76-.82v7.65q0 .32.12.39a.47.47 0 00.29.08v.2h-2.66v-.2c.16 0 .27 0 .31-.12a.68.68 0 000-.33v-10a.91.91 0 000-.41c0-.09-.15-.13-.32-.13v-.23zM115.5 47.63v-8.89h-3.61a.89.89 0 00-.45.09.34.34 0 00-.14.3h-.2v-2.6h.2a.31.31 0 00.1.25.55.55 0 00.42.12h9.49a.63.63 0 00.41-.1.34.34 0 00.12-.27h.2v2.6h-.2a.36.36 0 00-.11-.29.66.66 0 00-.43-.1h-3.66v8.91a.49.49 0 00.1.35.56.56 0 00.38.1v.2H115v-.2a.44.44 0 00.37-.12.54.54 0 00.13-.35zM125.22 37.54a.47.47 0 00-.11-.36.46.46 0 00-.31-.07v-.21h7.36a4.66 4.66 0 012.85.85 3 3 0 011.15 2.43 3.25 3.25 0 01-.78 2.24 3.55 3.55 0 01-2.2 1.08l2.82 4.13a1.89 1.89 0 00.31.37.52.52 0 00.33.1v.2h-3.36v-.2a.33.33 0 00.15 0 .12.12 0 00.06-.12.74.74 0 00-.14-.32q-.15-.24-.48-.72c-.22-.31-.53-.75-.91-1.31s-.87-1.28-1.45-2.16h-3.15v4.19a.52.52 0 00.11.39.47.47 0 00.32.08v.2h-3v-.2a.53.53 0 00.3-.07.44.44 0 00.12-.37zm2.19 1.2v2.87h4.66a2.46 2.46 0 001.36-.35 1.2 1.2 0 00.58-1.08 1.22 1.22 0 00-.63-1.12 2.84 2.84 0 00-1.44-.32zM146.58 37.11a.54.54 0 00-.25.1.24.24 0 00-.07.17 6.13 6.13 0 00.29.72l.88 1.93 1.46 3.21 2.05 4.53a.76.76 0 00.15.23.47.47 0 00.31.1v.2h-3v-.2a.39.39 0 00.2-.05.13.13 0 00.07-.12 3.59 3.59 0 00-.33-.83l-.83-1.8h-5.23c-.35.8-.62 1.41-.81 1.81a2.54 2.54 0 00-.3.76.21.21 0 000 .14.31.31 0 00.19.09v.2h-2.7v-.2a.55.55 0 00.39-.23 1.66 1.66 0 00.2-.4c.79-1.88 1.47-3.45 2-4.73l1.32-3.05c.34-.77.59-1.33.74-1.69a3.59 3.59 0 00.24-.59.26.26 0 00-.11-.23.48.48 0 00-.21-.07v-.21h3.3zm-1.8 2.29L143 43.52h3.64zM157.19 36.9v.21a.53.53 0 00-.35.09.46.46 0 00-.11.34v8.93h7a.8.8 0 00.44-.09.35.35 0 00.14-.29h.19v2.54h-.19a.29.29 0 00-.14-.26.84.84 0 00-.41-.07h-9.56v-.2q.26 0 .33-.12a.62.62 0 00.07-.33v-10a1 1 0 00-.06-.4c0-.1-.15-.14-.34-.14v-.21zM187.1 35.34l-1.88 3.09-.26-.16v-.09a.49.49 0 000-.12c-.06-.39-.59-.78-1.57-1.18a9 9 0 00-3.13-.63 6.39 6.39 0 00-4.12 1.25 4.57 4.57 0 00-1.62 3.73 4.61 4.61 0 001.56 3.68 6.83 6.83 0 004.42 1.32 7.4 7.4 0 003.43-.87c.95-.53 1.44-1 1.49-1.55a.47.47 0 000-.19l-.05-.14.17-.13 2 2.84-.13.07a.16.16 0 01-.09 0 .32.32 0 00-.14 0 1.27 1.27 0 00-.66.34 11.17 11.17 0 01-1.2.77 8.47 8.47 0 01-2 .79 11.23 11.23 0 01-3 .36 9.71 9.71 0 01-6-1.84 7 7 0 01.06-10.71 9.61 9.61 0 016.07-1.97 10.44 10.44 0 012.24.22 13.29 13.29 0 011.8.51c.52.2.94.37 1.27.53a3 3 0 00.68.25.52.52 0 00.28-.08l.14-.15zM196 36.75a6.58 6.58 0 014.56 1.6 5.65 5.65 0 011.74 4.25 5.55 5.55 0 01-1.77 4.27 6.69 6.69 0 01-4.53 1.57 6.81 6.81 0 01-4.63-1.59 5.55 5.55 0 01-1.74-4.25 5.64 5.64 0 011.71-4.23 6.62 6.62 0 014.66-1.62zm0 1.83a4.19 4.19 0 00-3.14 1.19 4 4 0 00-1.08 2.83 3.87 3.87 0 001.2 3 4.44 4.44 0 003 1.06 4.29 4.29 0 003-1.07 3.93 3.93 0 001.19-3 3.85 3.85 0 00-1.23-3 4.28 4.28 0 00-3-1.01zM207.31 36.9v.21a.54.54 0 00-.35.09.46.46 0 00-.1.34v8.93h7a.78.78 0 00.44-.09.33.33 0 00.14-.29h.2v2.54h-.2a.28.28 0 00-.13-.26.91.91 0 00-.42-.07h-9.55v-.2a.38.38 0 00.33-.12.54.54 0 00.06-.33v-10a.88.88 0 00-.05-.4c0-.1-.16-.14-.34-.14v-.21zM219.15 36.9v.21a.53.53 0 00-.35.09.46.46 0 00-.11.34v8.93h7a.8.8 0 00.44-.09.35.35 0 00.14-.29h.19v2.54h-.19a.29.29 0 00-.14-.26.86.86 0 00-.41-.07h-9.56v-.2q.25 0 .33-.12a.62.62 0 00.07-.33v-10a1 1 0 00-.06-.4c0-.1-.15-.14-.34-.14v-.21zM228.69 36.9h9.86a.7.7 0 00.39-.09.29.29 0 00.14-.25h.2v2.58h-.2a.37.37 0 00-.12-.29.65.65 0 00-.43-.11h-7.3v2.8H236a.58.58 0 00.38-.1.41.41 0 00.12-.3h.2v2.62h-.2a.35.35 0 00-.13-.29.61.61 0 00-.37-.09h-4.81v3.09h7.47a.67.67 0 00.4-.1.35.35 0 00.12-.28h.19v2.54h-.19a.3.3 0 00-.13-.25.93.93 0 00-.44-.08h-10v-.2q.26 0 .33-.12a.69.69 0 00.06-.39V37.53a.5.5 0 00-.09-.33.41.41 0 00-.3-.09zM248.57 36.75a8.76 8.76 0 011.86.18 10.24 10.24 0 011.44.41q.62.24 1 .42a2.33 2.33 0 00.51.21.29.29 0 00.19-.06l.14-.11.2.07-1.48 2.58-.19-.14a.38.38 0 010-.1.37.37 0 000-.12c0-.34-.42-.67-1.15-1a6.56 6.56 0 00-2.51-.52 5.26 5.26 0 00-3.33 1 3.59 3.59 0 00-1.33 2.93 4 4 0 001.13 2.92 4.65 4.65 0 003.35 1.19 6.39 6.39 0 001.91-.27 5.26 5.26 0 001.54-.75v-1.3h-2.58a.72.72 0 00-.41.11.34.34 0 00-.12.27h-.2v-2.75h.2a.35.35 0 00.13.27.69.69 0 00.43.11h5v.2a.31.31 0 00-.22.18.74.74 0 00-.07.37v3.06a.43.43 0 00.07.28.36.36 0 00.2.11v.2a12.17 12.17 0 01-2.57 1.17 11.19 11.19 0 01-3.35.57 7.17 7.17 0 01-4.79-1.55 5.43 5.43 0 01-1.77-4.29 5.35 5.35 0 012.05-4.35 7.52 7.52 0 014.72-1.5zM257.25 36.9h9.86a.75.75 0 00.39-.09.28.28 0 00.13-.25h.2v2.58h-.2a.33.33 0 00-.11-.29.67.67 0 00-.43-.11h-7.3v2.8h4.8a.56.56 0 00.38-.1.41.41 0 00.12-.3h.2v2.62h-.2a.34.34 0 00-.12-.29.64.64 0 00-.38-.09h-4.8v3.09h7.46a.67.67 0 00.4-.1.35.35 0 00.12-.28h.2v2.54h-.2a.28.28 0 00-.13-.25.88.88 0 00-.43-.08h-10v-.2c.16 0 .28 0 .32-.12a.68.68 0 00.07-.39V37.53a.5.5 0 00-.09-.33.41.41 0 00-.3-.09z"/><path class="cls-2" d="M83.65 30.66a17.31 17.31 0 00.56 4.39h5.71a16.46 16.46 0 01-.54-4.21 12.41 12.41 0 01.27-2.53c2.55.71 5.53 1.4 9 2a12.2 12.2 0 00-.48 3.34 12.48 12.48 0 00.08 1.38h4.18v-.14a11.47 11.47 0 01.68-3.86c1.53.22 3.14.42 4.84.61a10.28 10.28 0 00-.88 3.39h3.64a9.74 9.74 0 011.09-3c6.24.57 13.5.91 21.95.91 6 0 30.57-.67 47.16-4.46a12.09 12.09 0 013.23 3.9c0-.81-.87-2.3-2.62-4A57.06 57.06 0 00189 26.1a16 16 0 012.77 3.68 10.32 10.32 0 00-2.31-3.87c4.35-1.77 7.09-4 7.09-6.75 0-3.93-9.2-15.57-50.43-15.57-16.68 0-55.6 3.78-61.7 22.28-6.45-2.15-8.73-4.06-8.73-4.06s2 2.25 8.52 4.73a15.35 15.35 0 00-.56 4.12zm49.73 1.06c-7.95 0-14.87-.3-20.89-.79 6.27-8.77 25.71-12.22 34.19-12.22 16.8 0 26.56 4.19 31.88 7.94-16.41 4.22-43.34 5.07-45.18 5.07zm46-5.27c-5.72-4.5-16.62-9.65-33.09-9.65-9.53 0-31.81 3.72-37.74 13.76-1.74-.18-3.4-.37-5-.58 5.69-12.25 31.93-17 42.94-17 21.54 0 34.21 6 40.09 10.88a38.86 38.86 0 01-7.25 2.59zM146.17 5.89c14 0 44.9 2.65 44.9 12.92 0 1.8-1.45 3.35-3.86 4.69-5.87-5.59-17.14-13-41.27-12.84-12.22.07-41.7 5-47 18.64-3.49-.57-6.52-1.21-9.11-1.86C95 10 133.86 5.89 146.17 5.89zM120.08 50.48c7.54 3.33 16.23 4.76 19.91 4.76-8-.91-13.87-2.67-18.16-4.76zM112.14 50.48c9.58 4.66 21.39 6.66 26.19 6.66 0 0-13.26-1.42-23.67-6.66zM99.77 50.48c14 6.54 32.63 8 35.73 8-.78 0-17.25-1.66-30.28-8z"/></svg>